<svg width="40" height="40" viewBox="0 0 40 40" fill="none" xmlns="http://www.w3.org/2000/svg">
<rect width="40" height="40" rx="20" fill="url(#paint0_linear_1_25)"/>
<path d="M25.5536 28H14.1296V25.216L19.7696 19.36C20.9056 18.176 21.4736 17.184 21.4736 16.384C21.4736 15.856 21.3136 15.432 20.9936 15.112C20.6736 14.776 20.2336 14.608 19.6736 14.608C18.5536 14.608 17.7296 15.216 17.2016 16.432L13.9616 14.536C14.4736 13.368 15.2336 12.464 16.2416 11.824C17.2496 11.184 18.3776 10.864 19.6256 10.864C21.2096 10.864 22.5456 11.352 23.6336 12.328C24.7536 13.288 25.3136 14.584 25.3136 16.216C25.3136 17.992 24.4416 19.752 22.6976 21.496L19.9136 24.304H25.5536V28Z" fill="#0A0B0E"/>
<defs>
<linearGradient id="paint0_linear_1_25" x1="20" y1="0" x2="20" y2="40" gradientUnits="userSpaceOnUse">
<stop stop-color="#C7C7C7"/>
<stop offset="1" stop-color="#5F5F5F"/>
</linearGradient>
</defs>
</svg>
