<svg width="40" height="40" viewBox="0 0 40 40" fill="none" xmlns="http://www.w3.org/2000/svg">
<rect width="40" height="40" rx="20" fill="url(#paint0_linear_1_40)"/>
<path d="M25.2103 14.32L22.3063 18.016C23.3943 18.4 24.2583 19.008 24.8983 19.84C25.5543 20.656 25.8823 21.616 25.8823 22.72C25.8823 24.48 25.2903 25.856 24.1063 26.848C22.9223 27.84 21.4743 28.336 19.7623 28.336C18.4023 28.336 17.2023 28.032 16.1623 27.424C15.1223 26.8 14.3623 25.904 13.8823 24.736L17.1943 22.816C17.6103 24 18.4663 24.592 19.7623 24.592C20.7063 24.656 21.3783 24.36 21.7783 23.704C22.1783 23.048 22.1783 22.392 21.7783 21.736C21.3783 21.08 20.7063 20.784 19.7623 20.848H18.9703L17.5063 18.664L20.5543 14.8H14.4103V11.2H25.2103V14.32Z" fill="#0A0B0E"/>
<defs>
<linearGradient id="paint0_linear_1_40" x1="20" y1="0" x2="20" y2="40" gradientUnits="userSpaceOnUse">
<stop stop-color="#E68831"/>
<stop offset="1" stop-color="#A75D18"/>
</linearGradient>
</defs>
</svg>
